HIERARCHY
ROOT pelvis
{
	OFFSET 0.000000 0.000000 0.000000
	CHANNELS 6 Xposition Yposition Zposition Zrotation Xrotation Yrotation
	JOINT lfemur
	{
		OFFSET 11.446000 0.000000 0.000000
		CHANNELS 3 Zrotation Xrotation Yrotation
		JOINT ltibia
		{
			OFFSET 0.000000 -42.030400 0.000000
			CHANNELS 3 Zrotation Xrotation Yrotation
			JOINT lfoot
			{
				OFFSET 0.000000 -39.930200 0.000000
				CHANNELS 3 Zrotation Xrotation Yrotation
				JOINT ltoes
				{
					OFFSET 0.000000 0.000000 11.775800
					CHANNELS 3 Zrotation Xrotation Yrotation
					End Site
					{
					    OFFSET 0.000000 0.000000 5.000000
					}
				}
			}
		}
	}
	JOINT rfemur
	{
		OFFSET -11.446000 0.000000 0.000000
		CHANNELS 3 Zrotation Xrotation Yrotation
		JOINT rtibia
		{
			OFFSET 0.000000 -42.030400 0.000000
			CHANNELS 3 Zrotation Xrotation Yrotation
			JOINT rfoot
			{
				OFFSET 0.000000 -39.930200 0.000000
				CHANNELS 3 Zrotation Xrotation Yrotation
				JOINT rtoes
				{
					OFFSET 0.000000 0.000000 11.775800
					CHANNELS 3 Zrotation Xrotation Yrotation
					End Site
					{
					    OFFSET 0.000000 0.000000 5.000000
					}
				}
			}
		}
	}
	JOINT thorax
	{
		OFFSET 0.000000 11.255600 -5.000000
		CHANNELS 3 Zrotation Xrotation Yrotation
		JOINT head
		{
			OFFSET 0.000000 43.799300 0.000000
			CHANNELS 3 Zrotation Xrotation Yrotation
			End Site
			{
			    OFFSET 0.000000 5.000000 0.000000
			}
		}
		JOINT lclavicle
		{
			OFFSET 0.000000 39.863000 0.000000
			CHANNELS 3 Zrotation Xrotation Yrotation
			JOINT lhumerus
			{
				OFFSET 17.380600 4.958300 0.000000
				CHANNELS 3 Zrotation Xrotation Yrotation
				JOINT lradius
				{
					OFFSET 0.000000 -27.561300 0.000000
					CHANNELS 3 Zrotation Xrotation Yrotation
					JOINT lhand
					{
						OFFSET 0.000000 -26.933000 0.000000
						CHANNELS 3 Zrotation Xrotation Yrotation
						End Site
						{
						    OFFSET 0.000000 -5.000000 0.000000
						}
					}
				}
			}
		}
		JOINT rclavicle
		{
			OFFSET 0.000000 39.863000 0.000000
			CHANNELS 3 Zrotation Xrotation Yrotation
			JOINT rhumerus
			{
				OFFSET -17.380600 4.958300 0.000000
				CHANNELS 3 Zrotation Xrotation Yrotation
				JOINT rradius
				{
					OFFSET 0.000000 -27.561300 0.000000
					CHANNELS 3 Zrotation Xrotation Yrotation
					JOINT rhand
					{
						OFFSET 0.000000 -26.933000 0.000000
						CHANNELS 3 Zrotation Xrotation Yrotation
						End Site
						{
						    OFFSET 0.000000 -5.000000 0.000000
						}
					}
				}
			}
		}
	}
}
MOTION
Frames:	18
Frame Time:	0.0333333
-208.705 89.001 -2.96744 -4.47952 0.470901 -89.5615 -0.517868 -1.46055 0.84722 2.33897 17.3725 5.82687 4.31475 -0.300324 0.140413 -1.0734e-015 -5 -3.1927e-015 3.7436 0.705853 -0.653288 0.29209 11.4046 -18.1072 -4.64892 5.38077 -0.0268053 -1.55045e-015 -5 -6.38541e-015 -0.793093 -0.834294 0.479177 9.09336 19.9178 -22.5402 -1.98785e-016 1.13991e-015 1.98785e-016 17.2182 -0.308834 76.5749 8.14419 -0.13768 -107.417 6.23004 -6.56777 -9.29152 -1.98785e-016 1.13991e-015 1.98785e-016 -17.6415 -6.88833 -6.07053 13.8511 -12.722 33.8404 0.478411 -4.26741 9.97437 
-208.785 88.9823 -3.05791 -4.38339 0.487961 -89.0177 -0.399019 -1.71725 0.768031 2.39466 17.6772 5.36614 4.13678 -0.464715 0.141005 2.90229e-015 -5 -3.1927e-015 3.88082 0.791758 -0.584515 0.322492 11.2223 -18.7012 -4.63496 5.28918 -0.0270054 -9.93923e-016 -5 -0 -0.770439 -1.08768 0.511663 9.55038 21.324 -23.6273 -1.26943e-032 -3.65888e-015 -1.98785e-016 16.6177 -1.64159 76.5071 8.29378 -0.0660043 -107.521 5.97301 -6.46549 -9.31831 -1.26943e-032 -3.65888e-015 -1.98785e-016 -17.0116 -6.91954 -19.0597 14.9579 -5.38842 47.1636 0.633167 -3.42339 9.98144 
-208.873 88.9847 -3.10947 -4.31445 0.474017 -88.7465 -0.391067 -1.76013 0.684964 2.46999 17.6688 5.05669 3.62607 -0.607755 0.141365 2.38542e-015 -5 -0 3.90677 0.851367 -0.590194 0.351854 11.1275 -18.943 -4.6197 5.20902 -0.0276345 -2.58348e-016 -5 -6.38541e-015 -0.627337 -1.14392 0.522296 9.93972 22.6 -24.8067 1.98785e-016 -3.10601e-015 -7.95139e-016 15.5981 -3.00689 75.9253 7.80073 -0.168908 -105.999 6.77597 -6.94221 -9.21276 1.98785e-016 -3.10601e-015 -7.95139e-016 -15.9265 -6.482 -27.594 13.3837 -0.694247 57.0112 0.959951 -2.18006 9.99587 
-209.018 88.9957 -3.12994 -4.43845 0.382052 -88.7804 -0.481857 -1.36713 0.707045 2.46808 17.3385 5.10181 3.65827 -0.505812 0.141546 1.59028e-015 -5 -0 3.8303 1.07212 -0.682382 0.318178 11.1336 -18.8326 -4.69598 5.1338 -0.0283068 9.93923e-017 -5 -0 -0.724846 -0.795906 0.531581 10.6515 23.3588 -26.2397 -1.98785e-016 -4.95719e-015 1.98785e-016 14.6862 -4.09314 74.2012 6.04769 -0.00326561 -104.075 5.93397 -6.72059 -9.3042 -1.98785e-016 -4.95719e-015 1.98785e-016 -14.6931 -5.91627 -30.7737 11.4664 -0.0105648 61.3466 0.914174 -1.66114 9.98692 
-209.026 88.9857 -3.19221 -4.18595 0.472149 -88.465 -0.317849 -1.80582 0.647195 2.47467 17.6369 4.86203 3.77415 -0.55268 0.141615 2.52455e-015 -5 1.59635e-015 4.00258 1.00314 -0.550203 0.345789 10.8067 -19.2916 -4.72633 5.21279 -0.0290327 -2.52464e-015 -5 6.38541e-015 -1.00711 -0.772973 0.155783 11.661 23.8006 -27.7502 1.98785e-016 2.38542e-015 -1.98785e-016 14.4944 -5.16774 72.1373 4.22861 -0.0865069 -102.439 6.97786 -7.97138 -9.12448 1.98785e-016 2.38542e-015 -1.98785e-016 -13.6009 -4.81171 -32.6369 10.6507 -0.150199 62.0525 0.821942 -1.00448 9.95199 
-208.986 88.9819 -3.24064 -3.69903 0.599179 -88.3672 -0.171355 -2.39647 0.619615 2.51326 17.7258 4.78786 3.9741 -0.527634 0.141624 9.3427e-016 -5 1.59635e-015 4.18383 0.580998 -0.317609 0.346039 10.6169 -19.5911 -4.79417 5.34089 -0.0298117 -2.3655e-015 -5 -3.1927e-015 -1.29577 -0.689972 0.0839199 12.6286 23.7367 -29.5845 1.07761e-033 -3.10601e-016 1.98785e-016 14.1491 -6.88125 70.1482 2.63869 -0.035783 -101.631 5.7551 -7.98521 -9.264 1.07761e-033 -3.10601e-016 1.98785e-016 -12.3776 -3.57373 -33.3579 10.3041 -0.134972 60.1515 0.535416 -1.163 9.93456 
-209.081 89.0121 -3.20436 -3.44093 0.560321 -88.9989 -0.283084 -2.23057 0.789841 2.46348 17.183 5.2185 3.88148 -0.401048 0.134196 1.59028e-015 -5 -0 4.06229 0.31921 -0.264317 0.277493 10.6896 -18.9849 -4.68702 5.32842 -0.0306382 -5.96354e-016 -5 -0 -1.62902 -0.794614 0.0941035 13.4848 23.9869 -31.3711 7.95139e-016 -8.26199e-016 -0 13.3982 -7.76089 67.8854 1.31025 -0.00334088 -100.237 5.9416 -8.42003 -9.22086 7.95139e-016 -8.26199e-016 -0 -11.6045 -2.25287 -32.4954 10.6476 -0.0920276 58.301 -1.52844 -2.37558 9.81714 
-209.147 89.0416 -3.16367 -3.2018 0.513598 -89.819 -0.402295 -1.94672 0.989984 2.38647 16.4695 5.87601 3.93399 -0.114211 0.123995 -9.3427e-016 -5 -1.59635e-015 3.93013 -0.0399598 -0.188373 0.175218 10.925 -18.1594 -4.5777 5.31512 -0.0315226 -2.44498e-015 -5 -6.38541e-015 -2.19631 -1.23253 -0.373229 14.4301 24.5591 -32.9764 -6.28047e-034 -1.44818e-015 -2.48481e-017 13.6051 -8.31333 65.5765 0.0854556 -0.0506652 -99.9002 6.08759 -8.94582 -9.17315 -6.28047e-034 -1.44818e-015 -2.48481e-017 -11.6649 -1.35886 -32.6111 11.6007 -0.0547122 58.1349 -1.22197 -2.69792 9.83748 
-209.221 89.0637 -3.13247 -2.80682 0.487694 -90.6468 -0.545337 -1.84499 1.04671 2.30036 15.8358 6.66968 3.54397 0.0470784 0.109925 3.18055e-015 -5 -0 3.81358 -0.53927 -0.0936646 0.0739389 11.1154 -17.3472 -4.51847 5.29011 -0.032468 -1.41141e-015 -5 3.1927e-015 -2.79627 -1.28412 -0.57069 15.6326 24.3056 -35.2078 3.97569e-016 -1.73937e-015 1.98785e-016 13.9792 -9.90488 64.2677 -0.305244 -0.00339264 -100.536 6.05414 -9.00245 -9.17755 3.97569e-016 -1.73937e-015 1.98785e-016 -11.6511 -0.924925 -32.231 12.6806 -0.0843661 57.6084 -1.427 -2.97848 9.8126 
-209.375 89.0826 -3.00012 -2.50653 0.288715 -92.1572 -0.779267 -1.49232 1.13017 2.20859 15.1233 8.16035 3.6751 0.201713 0.106416 1.45115e-015 -5 -1.59635e-015 3.60961 -0.978936 -0.0552474 -0.00882499 11.3939 -15.8926 -4.51253 5.23117 -0.0334768 -2.68359e-015 -5 -0 -3.10616 -1.76821 -0.697961 16.6322 24.379 -37.8606 -3.97569e-016 -1.81391e-015 3.97569e-016 14.0731 -11.1029 63.535 0.0472376 -0.0689194 -102.339 6.61661 -8.98936 -9.10228 -3.97569e-016 -1.81391e-015 3.97569e-016 -11.6767 -0.350069 -30.9224 13.3066 -0.306378 56.3311 -1.51713 -3.41004 9.82217 
-209.514 89.0666 -2.97049 -2.33047 0.449929 -93.692 -0.773326 -1.34264 1.31669 2.11893 15.1494 9.44898 3.1652 -0.0627329 0.106697 2.38542e-015 -5 -0 3.64414 -1.22114 0.121889 -0.114179 11.4935 -14.5671 -4.4883 5.24861 -0.0345588 -2.78299e-015 -5 -0 -3.54167 -1.79553 -0.944348 17.7521 24.1742 -40.5287 3.86217e-032 2.78299e-015 -7.95139e-016 14.2937 -12.3653 62.8408 0.639754 -0.0518167 -104.271 7.20061 -9.11243 -9.02276 3.86217e-032 2.78299e-015 -7.95139e-016 -11.3681 -0.475579 -29.9711 13.5203 -1.63704 55.6501 -0.600636 -2.8774 9.89202 
-209.691 89.0398 -2.96929 -2.21328 0.708261 -95.2063 -0.626021 -1.39915 1.53443 2.07489 15.7761 10.7391 2.55891 -0.655311 0.106984 -2.52455e-015 -5 -1.59635e-015 3.75017 -1.37954 0.23867 -0.0974387 11.6557 -13.092 -4.35216 5.28993 -0.0381735 -2.46489e-015 -5 -3.1927e-015 -3.55918 -1.77149 -0.799813 18.9694 23.6676 -44.2551 1.59028e-015 -3.67752e-015 7.95139e-016 13.8713 -13.904 62.3343 1.92133 -0.0427298 -106.397 6.65255 -8.30991 -9.14051 1.59028e-015 -3.67752e-015 7.95139e-016 -11.5666 -0.432984 -29.4839 13.7574 -2.26436 54.899 -0.703176 -3.20842 9.87652 
-209.907 88.9595 -2.98666 -2.07048 1.01837 -97.0319 -0.338271 -1.62498 1.78644 1.91284 16.8915 12.2642 1.82356 -1.46211 0.102712 1.45115e-015 -5 -1.59635e-015 3.89188 -1.76042 0.317312 -0.0697497 12.2714 -11.1927 -4.12768 5.13137 -0.052331 -6.75832e-016 -5 -3.1927e-015 -3.95457 -1.70382 -1.09838 20.8938 22.9704 -47.8646 7.95139e-016 -5.76476e-015 -0 14.6855 -15.3189 62.7058 3.29373 -0.0248084 -108.882 7.33007 -8.45981 -9.05185 7.95139e-016 -5.76476e-015 -0 -11.2809 -0.862987 -29.3979 13.9508 -1.77166 54.9248 -2.16854 -4.05634 9.75959 
-210.074 88.8058 -2.9313 -1.95034 1.43428 -99.4269 -0.0254085 -2.39049 1.96458 1.66224 19.3542 14.3512 1.0049 -2.64961 0.0860878 -1.86854e-015 -5 -3.1927e-015 4.13391 -2.42584 0.521113 -0.142928 13.363 -8.94687 -3.98036 4.79768 -0.0710582 -3.5774e-016 -5 -6.38541e-015 -3.54367 -1.25315 -1.24402 21.6061 22.1727 -50.5678 6.62086e-032 -1.19271e-015 3.18055e-015 14.5136 -16.314 62.5338 4.22236 -0.00302797 -110.152 7.43005 -7.94161 -9.07272 6.62086e-032 -1.19271e-015 3.18055e-015 -11.5827 -1.50984 -29.0151 14.1063 -3.19174 54.0493 -0.713201 -2.95494 9.87932 
-210.223 88.5893 -2.8906 -1.89461 1.92995 -101.975 0.34352 -3.60213 1.91441 1.41259 22.867 16.6312 -0.233139 -3.89616 0.0294445 -1.05358e-015 -5 1.59635e-015 4.42473 -3.18494 0.683581 -0.213789 14.8532 -6.4343 -3.71852 4.23809 -0.0995338 -1.59028e-015 -5 -0 -3.88317 -0.169529 -1.38645 23.2584 21.0607 -52.9539 7.95139e-016 -4.17448e-015 -0 15.9137 -17.8239 63.4376 4.82318 -0.0424387 -111.658 6.91631 -7.6456 -9.15029 7.95139e-016 -4.17448e-015 -0 -10.5906 -2.38877 -28.217 14.0699 -4.8528 51.8562 0.302812 -2.34717 9.95214 
-210.349 88.3563 -2.77246 -1.91088 2.52378 -104.857 0.804166 -5.48759 1.87864 1.22195 27.9655 18.2708 -1.8703 -4.44972 -0.0756766 2.17672e-015 -5 -2.39453e-015 4.86101 -3.90492 1.0721 -0.558166 16.4034 -3.81364 -3.09905 3.73794 -0.128108 -1.43132e-015 -5 6.38541e-015 -3.76246 0.83141 -1.52779 24.293 20.3997 -54.7605 3.20008e-031 -5.76476e-015 3.18055e-015 16.7279 -18.6305 63.6684 5.15319 -0.00314312 -112.25 7.12817 -7.51977 -9.13419 3.20008e-031 -5.76476e-015 3.18055e-015 -10.457 -3.5561 -28.7716 14.2043 -4.14927 52.4235 -0.663401 -3.39169 9.8848 
-210.472 88.0826 -2.50452 -1.82186 2.915 -107.866 1.04963 -8.13796 1.24557 1.24348 34.2266 18.7904 -3.57633 -4.19465 -0.177194 6.13259e-015 -5 -7.18358e-015 5.16415 -5.00473 1.49704 -1.0454 18.4014 -1.18233 -2.57375 3.08809 -0.153702 -3.97569e-016 -5 -0 -3.63103 1.78979 -1.62678 25.2223 19.5509 -56.1895 2.38542e-015 3.57812e-015 -3.18055e-015 17.3266 -19.371 63.6536 5.44192 0.0312513 -112.185 7.60595 -7.32646 -9.09275 2.38542e-015 3.57812e-015 -3.18055e-015 -10.0246 -4.2232 -28.1124 14.1791 -5.16689 51.5735 -0.410773 -3.44357 9.90278 
-210.835 87.8274 -2.25116 -2.05892 3.71305 -110.752 1.70204 -10.4483 -0.0502125 1.28644 40.8827 16.9836 -3.02996 -3.05294 -0.138945 9.3427e-016 -5 1.59635e-015 5.56391 -5.36274 1.94657 -1.43251 20.111 1.52991 -2.10479 2.49212 -0.170397 -1.31201e-015 -5 3.1927e-015 -3.25233 2.60843 -1.94135 25.6433 19.4803 -57.1359 7.95139e-016 1.59028e-015 -3.18055e-015 17.9083 -19.5695 63.2135 5.50082 0.0168134 -111.98 7.50242 -7.23777 -9.11008 7.95139e-016 1.59028e-015 -3.18055e-015 -9.71098 -4.23949 -25.9006 14.4424 -6.44586 49.1493 -0.457241 -3.27121 9.89991 
